<svg width="65" height="65" viewBox="0 0 65 65" fill="none" xmlns="http://www.w3.org/2000/svg">
<path fill-rule="evenodd" clip-rule="evenodd" d="M32.5 65C50.4493 65 65 50.4493 65 32.5C65 14.5507 50.4493 0 32.5 0C14.5507 0 0 14.5507 0 32.5C0 50.4493 14.5507 65 32.5 65Z" fill="#B9F4BC"/>
<path fill-rule="evenodd" clip-rule="evenodd" d="M19 33C19 25.272 25.258 19 32.986 19C40.728 19 47 25.272 47 33C47 40.728 40.728 47 32.986 47C25.258 47 19 40.728 19 33ZM21.8 33C21.8 39.188 26.812 44.2 33 44.2C39.188 44.2 44.2 39.188 44.2 33C44.2 26.812 39.188 21.8 33 21.8C26.812 21.8 21.8 26.812 21.8 33Z" fill="#13B675"/>
<path d="M34.25 26H32V34.5246L39.875 39L41 37.2525L34.25 33.459V26Z" fill="#13B675"/>
</svg>
