<svg width="65" height="65" viewBox="0 0 65 65" fill="none" xmlns="http://www.w3.org/2000/svg">
<path fill-rule="evenodd" clip-rule="evenodd" d="M32.5 65C50.4493 65 65 50.4493 65 32.5C65 14.5507 50.4493 0 32.5 0C14.5507 0 0 14.5507 0 32.5C0 50.4493 14.5507 65 32.5 65Z" fill="#B9F4BC"/>
<path fill-rule="evenodd" clip-rule="evenodd" d="M32.5 21.75C26.3314 21.75 21.3182 26.7937 21.3182 33H26.9091L19.4545 40.5L12 33H17.5909C17.5909 24.7125 24.2627 18 32.5 18C35.4259 18 38.1468 18.8625 40.4391 20.325L37.7182 23.0625C36.1714 22.2188 34.3823 21.75 32.5 21.75ZM38.0909 33L45.5455 25.5L53 33H47.4091C47.4091 41.2875 40.7373 48 32.5 48C29.5741 48 26.8532 47.1375 24.5609 45.675L27.2818 42.9375C28.8286 43.7812 30.6177 44.25 32.5 44.25C38.6686 44.25 43.6818 39.2062 43.6818 33H38.0909Z" fill="#1BB978"/>
</svg>
