<svg width="65" height="65" viewBox="0 0 65 65" fill="none" xmlns="http://www.w3.org/2000/svg">
<path fill-rule="evenodd" clip-rule="evenodd" d="M32.5 65C50.4493 65 65 50.4493 65 32.5C65 14.5507 50.4493 0 32.5 0C14.5507 0 0 14.5507 0 32.5C0 50.4493 14.5507 65 32.5 65Z" fill="#B9F4BC"/>
<path d="M32.0747 31.85C28.7299 30.965 27.6542 30.05 27.6542 28.625C27.6542 26.99 29.1424 25.85 31.6326 25.85C34.2554 25.85 35.2279 27.125 35.3163 29H38.5727C38.4695 26.42 36.9224 24.05 33.8428 23.285V20H29.4224V23.24C26.5639 23.87 24.2652 25.76 24.2652 28.655C24.2652 32.12 27.0796 33.845 31.1906 34.85C34.8743 35.75 35.611 37.07 35.611 38.465C35.611 39.5 34.889 41.15 31.6326 41.15C28.5972 41.15 27.4037 39.77 27.2417 38H24C24.1768 41.285 26.5933 43.13 29.4224 43.745V47H33.8428V43.775C36.7161 43.22 39 41.525 39 38.45C39 34.19 35.4195 32.735 32.0747 31.85Z" fill="#1BB978"/>
</svg>
