<svg width="65" height="65" viewBox="0 0 65 65" fill="none" xmlns="http://www.w3.org/2000/svg">
<path fill-rule="evenodd" clip-rule="evenodd" d="M32.5 65C50.4493 65 65 50.4493 65 32.5C65 14.5507 50.4493 0 32.5 0C14.5507 0 0 14.5507 0 32.5C0 50.4493 14.5507 65 32.5 65Z" fill="#B9F4BC"/>
<path fill-rule="evenodd" clip-rule="evenodd" d="M41.875 25.6667H40.3125V22.619C40.3125 18.4133 36.8125 15 32.5 15C28.1875 15 24.6875 18.4133 24.6875 22.619V25.6667H23.125C21.4062 25.6667 20 27.0381 20 28.7143V43.9524C20 45.6286 21.4062 47 23.125 47H41.875C43.5938 47 45 45.6286 45 43.9524V28.7143C45 27.0381 43.5938 25.6667 41.875 25.6667ZM32.5 39.381C30.7812 39.381 29.375 38.0095 29.375 36.3333C29.375 34.6571 30.7812 33.2857 32.5 33.2857C34.2188 33.2857 35.625 34.6571 35.625 36.3333C35.625 38.0095 34.2188 39.381 32.5 39.381ZM27.6562 25.6667H37.3438V22.619C37.3438 20.0133 35.1719 17.8952 32.5 17.8952C29.8281 17.8952 27.6562 20.0133 27.6562 22.619V25.6667Z" fill="#13B675"/>
</svg>
