<svg width="65" height="65" viewBox="0 0 65 65" fill="none" xmlns="http://www.w3.org/2000/svg">
<path fill-rule="evenodd" clip-rule="evenodd" d="M32.5 65C50.4493 65 65 50.4493 65 32.5C65 14.5507 50.4493 0 32.5 0C14.5507 0 0 14.5507 0 32.5C0 50.4493 14.5507 65 32.5 65Z" fill="#B9F4BC"/>
<path fill-rule="evenodd" clip-rule="evenodd" d="M34.1372 31.2902C32.377 32.6306 30.375 34.1551 30.375 38H34.625C34.625 35.6875 36.1359 34.3758 37.6866 33.0295C39.3212 31.6103 41 30.1528 41 27.4444C41 22.7789 37.1962 19 32.5 19C27.8038 19 24 22.7789 24 27.4444H28.25C28.25 25.1222 30.1625 23.2222 32.5 23.2222C34.8375 23.2222 36.75 25.1222 36.75 27.4444C36.75 29.3006 35.518 30.2387 34.1372 31.2902ZM30 46H34V42H30V46Z" fill="#13B675"/>
</svg>
